<svg viewBox="0 0 96 96" xmlns="http://www.w3.org/2000/svg" xmlns:xlink="http://www.w3.org/1999/xlink" id="Icons_ConfettiBall_M" overflow="hidden"><style>
.MsftOfcThm_Accent4_lumMod_75_Stroke_v2 {
 stroke:#BF9000; 
}
</style>
<g id="Icons"><path d="M25.3 53.7C28.1 50.8 31.3 48.1 34 48.1 31.7 46.1 28.9 44.8 25.9 44.3 21.1 46.1 17.3 52.9 17.3 52.9 17 55.9 17.6 58.9 18.9 61.5 20.1 61.2 21.4 61.1 22.7 61.1 24.9 61.1 27.1 61.4 29.2 62 25.6 64.8 23 68.5 21.6 72.8 21.8 72.8 28.6 75 28.6 75 28.6 75 31.2 67.9 37.8 65.3 37.8 65.3 40.2 60.1 38.4 57.2 34.8 55.4 29.6 54.3 25.3 53.7ZM19.2 53.6C20.3 51.8 23.2 47.8 26.1 46.4 27.3 46.7 28.4 47.1 29.5 47.6 27.4 48.9 25.5 50.5 23.8 52.4L22.6 53.6C22.1 54 21.6 54.5 21.2 55L21.1 55.2C20.5 56 20 56.8 19.5 57.7 19.5 57.7 19.5 57.7 19.5 57.7 19.5 57.7 19.5 57.7 19.5 57.7 19.2 56.3 19.1 54.9 19.2 53.6L19.2 53.6ZM22.6 59.2C22.1 59.2 21.6 59.2 21 59.3 21 59.3 21 59.3 21 59.3 21 59.3 21 59.3 21 59.3 21.6 57.9 22.4 56.6 23.5 55.5L25 55.7C28.4 56.1 31.7 56.9 34.9 58 34.9 58 34.9 58 34.9 58 34.9 58 34.9 58 34.9 58 33.6 58.8 32.3 59.6 31 60.5L31 60.5 29.6 60.2C27.3 59.5 25 59.2 22.6 59.2L22.6 59.2ZM36.2 63.8C32.4 65.7 29.4 68.8 27.5 72.6 26.1 72.1 25 71.8 24.2 71.5 25.6 68.4 27.7 65.7 30.4 63.6L33.5 61.1C34.6 60.3 35.7 59.7 36.9 59.1 36.9 59.1 36.9 59.1 36.9 59.1 36.9 59.1 36.9 59.1 36.9 59.1 37 60.7 36.8 62.2 36.2 63.7 36.2 63.8 36.2 63.8 36.2 63.8Z" class="MsftOfcThm_Accent4_lumMod_75_Stroke_v2" stroke="#BF9000"/><path d="M42.7 52.4 40.9 47.5 36 45.7 37.8 50.6Z" class="MsftOfcThm_Accent4_lumMod_75_Stroke_v2" stroke="#BF9000"/><path d="M49.3 60.9 44.4 62.7 42.6 67.6 47.5 65.8Z" class="MsftOfcThm_Accent4_lumMod_75_Stroke_v2" stroke="#BF9000"/><path d="M34.1 78.9 36.3 83.6 38.4 78.9 36.3 74.1Z" class="MsftOfcThm_Accent4_lumMod_75_Stroke_v2" stroke="#BF9000"/><path d="M75.1 74.5 78.5 78.4 79.2 73.3 75.8 69.3Z" class="MsftOfcThm_Accent4_lumMod_75_Stroke_v2" stroke="#BF9000"/><path d="M34.7 38.3C39 36.6 43.2 34.6 47.3 32.3 50.3 30.5 54.7 28 53.2 24.3 48.5 12.8 35.4 7.4 23.9 12.1 12.4 16.8 7 30 11.7 41.5 12.5 43.3 14.1 43.9 16 43.9 17.9 43.8 19.7 43.5 21.5 42.9 26 41.7 30.4 40.1 34.7 38.3ZM24.7 14C34.8 9.8 46.5 14.3 51.1 24.3 47 24.2 37.2 27.8 31.4 30.2 26.8 32.1 22.3 34.2 17.9 36.7 16.2 37.6 14.7 38.7 13.3 39.9 9.5 29.6 14.6 18.2 24.7 14ZM16 42C15.4 42 14.9 41.9 14.3 41.7 14.3 41.7 14.3 41.7 14.3 41.7 14.3 41.7 14.3 41.7 14.3 41.7 14.9 40.5 21.3 36.6 32.1 32.1 42.9 27.6 50.2 25.9 51.4 26.3 51 27.6 49.2 28.9 46.5 30.5L46.3 30.6C42.3 32.8 38.1 34.8 33.9 36.5 29.7 38.3 25.4 39.8 20.9 41.1 19.4 41.5 17.7 41.9 16 42Z" class="MsftOfcThm_Accent4_lumMod_75_Stroke_v2" stroke="#BF9000"/><path d="M71.2 30.1 71.2 30.1C59.7 25.3 46.6 30.8 41.8 42.3 40.3 46 44.8 48.5 47.7 50.3 51.8 52.6 56 54.6 60.3 56.3 64.6 58.1 69 59.7 73.5 61 75.3 61.6 77.1 61.9 79 62 80.9 62 82.5 61.4 83.3 59.6 88.2 48.1 82.7 34.9 71.2 30.1ZM74.1 59.1C69.7 57.8 65.3 56.3 61.1 54.5 56.9 52.8 52.7 50.8 48.7 48.6L48.5 48.5C46.2 47.1 44.1 45.7 43.6 44.3 43.6 44.3 43.6 44.3 43.6 44.3 43.6 44.3 43.6 44.3 43.6 44.3 45.3 44.1 52.5 45.9 62.9 50.1 73.4 54.4 80 58.5 80.7 59.7 80.7 59.7 80.7 59.7 80.7 59.7 80.2 59.9 79.6 60 79.1 60 77.4 59.9 75.7 59.6 74.1 59.1ZM81.9 57.9C81.9 58 81.9 58 81.9 57.9 81.8 58 81.8 58 81.9 57.9 79.2 55.3 71 51.2 63.7 48.2 62.1 47.5 49.2 42.3 44.1 42.2 44.1 42.2 44.1 42.2 44.1 42.2 44.1 42.2 44.1 42.2 44.1 42.2 48.9 31.9 61.1 27.5 71.3 32.3 80.9 36.8 85.5 48 81.9 57.9L81.9 57.9Z" class="MsftOfcThm_Accent4_lumMod_75_Stroke_v2" stroke="#BF9000"/><path d="M68.8 61.6C69.6 63.3 69.9 65.2 69.7 67 69.7 67.1 69.7 67.2 69.6 67.2 69.2 67.2 68.7 67.1 68.3 67.1L67.8 66C66.7 63.7 65.2 61.6 63.5 59.7 62.2 59.2 60.9 58.7 59.6 58.1 58.7 57.7 57.7 57.3 56.8 56.9L56.8 56.9C60.8 59.2 64 62.7 66 66.9 62.5 66.4 59 65.6 55.5 64.6 55.5 64.6 52.9 65.4 52.2 70.8 52.1 71.2 52.1 71.5 52.1 71.9 55.1 73.9 57.9 76.1 60.5 78.5 58.6 79 56.6 79.2 54.6 79.2 51.6 79.2 48.6 78.6 45.9 77.4 47.1 81.1 47.3 84.3 46.9 86.2 48.9 86.7 50.9 86.9 53 86.9 61 86.9 64.4 82.8 64.4 82.8 64.4 82.8 68.5 77.3 67.8 75.6 66.5 74.8 65.3 74.1 64.2 73.3 65.5 73.6 66.8 74.1 68.3 74.7 70.1 74 71.7 67.5 71.7 67.5 71.9 65.8 71.7 64.1 71.2 62.4 70.4 62.1 69.6 61.9 68.8 61.6ZM62.9 81.6C62.5 82 59.5 85 53 85 51.7 85 50.4 84.9 49.2 84.7 49.2 83.3 49.1 82 48.9 80.6 50.8 81.1 52.8 81.3 54.7 81.3 56.8 81.3 59 81 61 80.5L64.2 79.7C63.7 80.3 63.3 81 62.9 81.6L62.9 81.6ZM65.4 76.4C64.6 77 63.7 77.5 62.8 77.9L61.9 77.1C59.5 74.9 56.9 72.9 54.2 71 54.2 70.9 54.2 70.8 54.3 70.7 55.7 71 57.1 71.4 58.4 71.9L63.2 75C63.8 75.4 64.5 75.9 65.4 76.4L65.4 76.4ZM67.8 72.4C66.8 72 65.8 71.7 64.7 71.4L58 69.7C56.9 69.3 55.8 69 54.7 68.8 54.9 68.1 55.3 67.4 55.8 66.9 59 67.8 62.4 68.5 65.7 69L69 69.4C68.7 70.4 68.3 71.4 67.8 72.4Z" class="MsftOfcThm_Accent4_lumMod_75_Stroke_v2" stroke="#BF9000"/></g></svg>