<svg viewBox="0 0 96 96" xmlns="http://www.w3.org/2000/svg" xmlns:xlink="http://www.w3.org/1999/xlink" id="Icons_Firecracker" overflow="hidden"><style>
.MsftOfcThm_Accent2_Fill_v2 {
 fill:#ED7D31; 
}
.MsftOfcThm_Accent6_Stroke_v2 {
 stroke:#70AD47; 
}
</style>
<path d="M54 12 58 16 23.5 50.5 36.5 63.5C33.4 66.4 27.6 68.8 22.8 66.2 21.8 65.7 20.6 66 20.1 67 19.6 68 20 69.2 21 69.8 23.1 70.9 25.3 71.4 27.4 71.4 32.2 71.4 36.7 68.9 39.5 66.4L41 67.9 27.9 81 31.9 85 79.4 37.5 84 42 84 12 54 12ZM57.7 22 64 22 70 28 51.7 28 57.7 22ZM50.3 61 39.7 61 33.7 55 56.3 55 50.3 61ZM66.8 44.5 35.2 44.5 41.2 38.5 72.8 38.5 66.8 44.5Z" class="MsftOfcThm_Accent6_Stroke_v2 MsftOfcThm_Accent2_Fill_v2" stroke="#70AD47" stroke-width="2" fill="#ED7D31"/><path d="M21.9 64C23 64 23.9 63.1 23.9 62L23.9 59C23.9 57.9 23 57 21.9 57 20.8 57 19.9 57.9 19.9 59L19.9 62C19.9 63.1 20.8 64 21.9 64Z" class="MsftOfcThm_Accent6_Stroke_v2 MsftOfcThm_Accent2_Fill_v2" stroke="#70AD47" stroke-width="2" fill="#ED7D31"/><path d="M13.4 64.5 15.9 66.2C16.2 66.4 16.6 66.6 17 66.6 17.6 66.6 18.3 66.3 18.6 65.7 19.2 64.8 19 63.5 18.1 62.9L15.6 61.2C14.7 60.6 13.4 60.8 12.8 61.7 12.2 62.7 12.4 63.9 13.4 64.5Z" class="MsftOfcThm_Accent6_Stroke_v2 MsftOfcThm_Accent2_Fill_v2" stroke="#70AD47" stroke-width="2" fill="#ED7D31"/><path d="M15.9 69.8 13.5 71.5C12.6 72.1 12.4 73.4 13 74.3 13.4 74.8 14 75.1 14.6 75.1 15 75.1 15.4 75 15.8 74.7L18.2 73C19.1 72.4 19.3 71.1 18.7 70.2 18 69.4 16.8 69.2 15.9 69.8Z" class="MsftOfcThm_Accent6_Stroke_v2 MsftOfcThm_Accent2_Fill_v2" stroke="#70AD47" stroke-width="2" fill="#ED7D31"/><path d="M21.9 72C20.8 72 19.9 72.9 19.9 74L19.9 77C19.9 78.1 20.8 79 21.9 79 23 79 23.9 78.1 23.9 77L23.9 74C23.9 72.9 23 72 21.9 72Z" class="MsftOfcThm_Accent6_Stroke_v2 MsftOfcThm_Accent2_Fill_v2" stroke="#70AD47" stroke-width="2" fill="#ED7D31"/></svg>