<svg viewBox="0 0 96 96" xmlns="http://www.w3.org/2000/svg" xmlns:xlink="http://www.w3.org/1999/xlink" id="Icons_Ketupat" overflow="hidden"><path d="M48.257 85.918 57.958 76.216 48 66.258 38.224 76.034 48.257 85.918Z"/><path d="M60.492 81.21 70.863 70.839 70.863 66.14 60.492 76.511 60.492 81.21Z"/><rect x="40.667" y="44.311" width="14.667" height="14.667" transform="matrix(0.707107 -0.707107 0.707107 0.707107 -22.459 49.067)"/><rect x="52.953" y="56.889" width="14.667" height="14.083" transform="matrix(0.707107 -0.707107 0.707107 0.707107 -27.548 61.353)"/><path d="M35.508 53.766 25.638 63.636 36.086 73.929 45.879 64.137 35.508 53.766Z"/><path d="M82.943 51.232 72.984 41.274 62.614 51.645 72.572 61.603 81.944 52.23 82.943 51.232Z"/><path d="M25.14 70.964 35.511 81.334 35.511 76.169 25.14 65.953 25.14 70.964Z"/><path d="M37.632 78.259 37.632 83.456 47.939 93.763 58.371 83.331 58.371 78.632 48.268 88.736 37.632 78.259Z"/><path d="M23.016 41.274 13.051 51.238 14.048 52.22 23.5 61.531 33.386 51.645 23.016 41.274Z"/><path d="M12.645 58.468 23.019 68.842 23.019 63.864 12.645 53.645 12.645 58.468Z"/><path d="M72.984 64.019 72.984 68.718 83.359 58.344 83.359 53.645 72.984 64.019Z"/><path d="M48 37.031 58.371 26.66 54 22.289 54 2 50 2 50 18.289 48 16.289 46 18.289 46 2 42 2 42 22.289 37.629 26.66 48 37.031Z"/><rect x="28.174" y="31.819" width="14.667" height="14.667" transform="matrix(0.707107 -0.707107 0.707107 0.707107 -17.285 36.575)"/><rect x="53.159" y="31.819" width="14.667" height="14.667" transform="matrix(0.707107 -0.707107 0.707107 0.707107 -9.967 54.242)"/></svg>